<?xml version="1.0" encoding="utf-8"?>
<!-- Generator: Adobe Illustrator 22.0.0, SVG Export Plug-In . SVG Version: 6.00 Build 0)  -->
<svg version="1.1" id="Layer_1" xmlns="http://www.w3.org/2000/svg" xmlns:xlink="http://www.w3.org/1999/xlink" x="0px" y="0px"
	 viewBox="0 0 29.3 29.2" style="enable-background:new 0 0 29.3 29.2;" xml:space="preserve">
<style type="text/css">
	.st0{fill:#FDFDFD;}
</style>
<g>
	<path class="st0" d="M28.7,14.2c0,8.2-6.3,14.5-14.1,14.5c-7.8,0-13.7-6.2-14-13.2c-0.2-4.2,1.1-7.8,4-10.8
		c2.5-2.5,5.6-3.9,9.1-4.2c4.2-0.2,7.8,1.1,10.8,4.1C27.3,7.4,28.7,10.8,28.7,14.2z M14.6,20.9c2.6,0,5.2,0,7.9,0
		c0.4,0,0.7-0.2,0.8-0.6c0-0.1,0-0.3,0-0.4c0-3.5,0-7,0-10.6c0-0.1,0-0.2,0-0.2c-0.1-0.6-0.3-0.8-0.9-0.8c-5.2,0-10.4,0-15.6,0
		c-0.6,0-0.9,0.3-0.9,0.9c0,3.6,0,7.2,0,10.8c0,0.6,0.3,0.9,0.9,0.9C9.4,20.9,12,20.9,14.6,20.9z"/>
	<path class="st0" d="M20.5,10.1c-0.6,0.6-1.2,1.1-1.9,1.6c-1.3,1.1-2.6,2.2-3.9,3.4c-0.2,0.2-0.2,0.2-0.5,0
		c-1.9-1.6-3.8-3.3-5.6-4.9c0,0,0,0-0.1-0.1C12.6,10.1,16.6,10.1,20.5,10.1z"/>
	<path class="st0" d="M20.4,19.4c-3.9,0-7.7,0-11.5,0C8.9,19.3,9,19.3,9,19.2c0.9-0.8,1.8-1.6,2.7-2.4c0.3-0.3,0.7-0.6,1-0.9
		c0.1-0.1,0.2-0.1,0.3,0c0.3,0.3,0.7,0.6,1,0.9c0.4,0.3,0.7,0.3,1.1,0c0.3-0.3,0.7-0.6,1-0.9c0.1-0.1,0.2-0.1,0.3,0
		c0.9,0.8,1.8,1.6,2.7,2.4c0.3,0.3,0.7,0.6,1,0.9C20.3,19.3,20.3,19.3,20.4,19.4z"/>
	<path class="st0" d="M7.4,18.6c0-2.5,0-5,0-7.6c1.5,1.3,2.9,2.5,4.3,3.8C10.3,16.1,8.9,17.3,7.4,18.6C7.5,18.6,7.4,18.6,7.4,18.6z"
		/>
	<path class="st0" d="M21.8,11c0,2.6,0,5.1,0,7.6c-1.4-1.3-2.9-2.6-4.3-3.9C18.9,13.5,20.3,12.2,21.8,11z"/>
</g>
</svg>
