<svg xmlns="http://www.w3.org/2000/svg" xmlns:xlink="http://www.w3.org/1999/xlink" width="29" height="29" version="1.1" viewBox="0 0 29 29"><title>instagram-with-circle</title><desc>Created with Sketch.</desc><g id="Homepage" fill="none" fill-rule="evenodd" stroke="none" stroke-width="1"><g id="Homepage-First-Access-(2-Grid)-Copy-15" fill="#FFF" fill-rule="nonzero" transform="translate(-1492.000000, -5652.000000)"><g id="Group-54" transform="translate(0.000000, 5564.000000)"><g id="instagram-with-circle" transform="translate(1492.000000, 88.000000)"><path id="Shape" d="M20.246625,9.976695 C19.9942949,9.32263426 19.4773207,8.80566007 18.82326,8.55333 C18.3772902,8.38805371 17.9062222,8.30069092 17.430645,8.29506 C16.63971,8.25897 16.40259,8.25138 14.39997,8.25138 C12.39735,8.25138 12.16023,8.25897 11.369295,8.295045 C10.8937178,8.30067592 10.4226498,8.38803871 9.97668,8.553315 C9.32261926,8.80564507 8.80564507,9.32261926 8.553315,9.97668 C8.38803871,10.4226498 8.30067592,10.8937178 8.295045,11.369295 C8.25897,12.16023 8.25138,12.39747 8.25138,14.39997 C8.25138,16.40247 8.258985,16.63971 8.295045,17.430645 C8.3006652,17.9062232 8.38802833,18.377293 8.553315,18.82326 C8.80564507,19.4773207 9.32261926,19.9942949 9.97668,20.246625 C10.4226498,20.4119013 10.8937178,20.4992641 11.369295,20.504895 C12.160035,20.540895 12.397245,20.54856 14.39997,20.54856 C16.402695,20.54856 16.639905,20.540955 17.430645,20.504895 C17.9062222,20.4992641 18.3772902,20.4119013 18.82326,20.246625 C19.4773207,19.9942949 19.9942949,19.4773207 20.246625,18.82326 C20.4119117,18.377293 20.4992748,17.9062232 20.504895,17.430645 C20.540895,16.639725 20.54856,16.402605 20.54856,14.39997 C20.54856,12.397335 20.54097,12.16023 20.504895,11.369295 C20.4992624,10.8937229 20.4118996,10.4226601 20.246625,9.976695 Z M14.39997,18.251325 C12.2729254,18.251325 10.548615,16.5270146 10.548615,14.39997 C10.548615,12.2729254 12.2729254,10.548615 14.39997,10.548615 C16.5270146,10.548615 18.251325,12.2729254 18.251325,14.39997 C18.251329,15.4214141 17.8455637,16.4010236 17.1232936,17.1232936 C16.4010236,17.8455637 15.4214141,18.251329 14.39997,18.251325 Z M18.40347,11.29647 C17.9064137,11.29647 17.50347,10.8935263 17.50347,10.39647 C17.50347,9.89941373 17.9064137,9.49647 18.40347,9.49647 C18.9005263,9.49647 19.30347,9.89941373 19.30347,10.39647 C19.30347,10.8935263 18.9005263,11.29647 18.40347,11.29647 Z"/><circle id="Oval" cx="14.4" cy="14.4" r="2.5"/><path id="Shape" d="M14.39997,-3e-05 C6.4470696,-3e-05 -3e-05,6.4470696 -3e-05,14.39997 C-3e-05,22.3528704 6.4470696,28.79997 14.39997,28.79997 C22.3528704,28.79997 28.79997,22.3528704 28.79997,14.39997 C28.7999899,10.5808464 27.2828578,6.91813855 24.5823296,4.21761038 C21.8818015,1.51708222 18.2190936,-4.98914239e-05 14.39997,-3e-05 Z M21.854835,17.49222 C21.8423487,18.114402 21.7244684,18.7299643 21.506205,19.31274 C21.1166646,20.3202005 20.3202455,21.1166196 19.312785,21.50616 C18.7300093,21.7244234 18.114447,21.8423037 17.492265,21.85479 C16.69227,21.89136 16.436835,21.89997 14.39997,21.89997 C12.363105,21.89997 12.10767,21.89136 11.30769,21.854835 C10.685508,21.8423487 10.0699457,21.7244684 9.48717,21.506205 C8.4797095,21.1166646 7.6832904,20.3202455 7.29375,19.312785 C7.07548664,18.7300093 6.95760633,18.114447 6.94512,17.492265 C6.90858,16.69227 6.89997,16.436835 6.89997,14.39997 C6.89997,12.363105 6.90858,12.10767 6.945105,11.30769 C6.95759133,10.685508 7.07547164,10.0699457 7.293735,9.48717 C7.68327189,8.47970381 8.47969147,7.68327878 9.487155,7.293735 C10.0699307,7.07547164 10.685493,6.95759133 11.307675,6.945105 C12.10767,6.90858 12.363105,6.89997 14.39997,6.89997 C16.436835,6.89997 16.69227,6.90858 17.49225,6.945105 C18.114432,6.95759133 18.7299943,7.07547164 19.31277,7.293735 C20.3202305,7.6832754 21.1166496,8.4796945 21.50619,9.487155 C21.7244534,10.0699307 21.8423337,10.685493 21.85482,11.307675 C21.89136,12.10767 21.89997,12.363105 21.89997,14.39997 C21.89997,16.436835 21.89136,16.69227 21.854835,17.49225 L21.854835,17.49222 Z"/></g></g></g></g></svg>