<svg id="Layer_1" data-name="Layer 1" xmlns="http://www.w3.org/2000/svg" viewBox="0 0 29.26 29.24"><defs><style>.cls-1{fill:#fff;}</style></defs><title>linkedin-with-circle</title><path class="cls-1" d="M.45,15.79v-2c.11,0,.12-.1.12-.19a10.12,10.12,0,0,1,.18-1.44A14.35,14.35,0,0,1,4.62,4.66,14.14,14.14,0,0,1,9.38,1.38,13.73,13.73,0,0,1,13.61.3c.09,0,.2,0,.22-.12h2.55c0,.13.12.12.22.12a10.24,10.24,0,0,1,1.84.3A14.69,14.69,0,0,1,28.68,9.4a14.56,14.56,0,0,1,1,6.82,14.13,14.13,0,0,1-1.39,5A14.63,14.63,0,0,1,14,29.37a14.16,14.16,0,0,1-3.81-.81,14.38,14.38,0,0,1-6.33-4.48A14.16,14.16,0,0,1,.57,16C.56,15.92.58,15.81.45,15.79Zm16.06-2.66c0-.4,0-.71,0-1s-.09-.35-.35-.34H13.84c-.59,0-.58,0-.59.58,0,3,.07,5.92-.05,8.88,0,.48,0,.48.46.48.83,0,1.66,0,2.48,0,.31,0,.38-.1.37-.38,0-1.72,0-3.44,0-5.16a2,2,0,0,1,.68-1.62,1.64,1.64,0,0,1,2.59.51A3.38,3.38,0,0,1,20,16.24c0,1.7,0,3.4,0,5.1,0,.28.07.39.37.38q1.29,0,2.58,0c.29,0,.38-.08.38-.37,0-1.76,0-3.51,0-5.26a7.82,7.82,0,0,0-.13-1.45,3.51,3.51,0,0,0-2.82-3,3.58,3.58,0,0,0-3.12.69A8.08,8.08,0,0,0,16.51,13.13ZM8.09,16.75c0,1.55,0,3.1,0,4.64,0,.26.07.33.32.33h2.68c.26,0,.32-.09.32-.33q0-4.65,0-9.3c0-.25-.08-.33-.33-.32H8.44c-.29,0-.36.09-.35.36C8.1,13.67,8.09,15.21,8.09,16.75ZM9.77,7H9.58a1.68,1.68,0,0,0-1.5,2.47,2,2,0,0,0,2.55.76,1.55,1.55,0,0,0,.74-.67A1.7,1.7,0,0,0,9.77,7Z" transform="translate(-0.45 -0.18)"/></svg>